# xmcd
#
# Track frame offsets: 
#        150
#        13885
#        29175
#        43790
#        57990
#        71527
#        81740
#        92147
#        105535
#        117947
#        132905
#        145525
#        158502
#        170452
#        185442
#        205660
#        216660
#        226367
#        242797
#        257007
#        269060
#        281727
#        291642
#        304652
#        316025
#        331365
#        343445
#
# Disc length: 4744 seconds
#
# Revision: 3
# Processed by: cddbd v1.5.2PL0 Copyright (c) Steve Scherf et al.
# Submitted via: ExactAudioCopyFreeDBPlugin 1.0
#
DISCID=ad12861b
DTITLE=Andre Williams - Mr. Rhythm
DYEAR=1996
DGENRE=R&B
TTITLE0=Bacon Fat
TTITLE1=Jail Bait
TTITLE2=Mozelle
TTITLE3=The Greasy Chicken
TTITLE4=Going Down to Tia Juana
TTITLE5=Jailhouse Blues
TTITLE6=Don't Touch
TTITLE7=My Tears
TTITLE8=Just Want a Little Lovin'
TTITLE9=(Georgia May Is) Movin'
TTITLE10=(M M M M Andre Williams Is) M-M-Movin'
TTITLE11=Pulling Time
TTITLE12=Mean Jean
TTITLE13=Pass the Biscuits Please
TTITLE14=I Wanna Know Why
TTITLE15=I'm All for You
TTITLE16=Hey Country Girl
TTITLE17=Come On Baby
TTITLE18=Just Because of a Kiss
TTITLE19=Bobby Jean
TTITLE20=Put a Chain on It
TTITLE21=Is It True?
TTITLE22=My Last Dance with You
TTITLE23=I Still Love You
TTITLE24=Tossin' and Turnin'
TTITLE25=You Are My Sunshine
TTITLE26=Just Because
EXTD=
EXTT0=
EXTT1=
EXTT2=
EXTT3=
EXTT4=
EXTT5=
EXTT6=
EXTT7=
EXTT8=
EXTT9=
EXTT10=
EXTT11=
EXTT12=
EXTT13=
EXTT14=
EXTT15=
EXTT16=
EXTT17=
EXTT18=
EXTT19=
EXTT20=
EXTT21=
EXTT22=
EXTT23=
EXTT24=
EXTT25=
EXTT26=
PLAYORDER=
